:FULLY-SPECIFIED
:FORCE-ALL-JOINTS-BE-3DOF
:DEGREES
356
root 9.4235 16.8179 13.9062 6.43154 6.31588 -0.894547
lfemur -12.5754 5.66788 -18.0517
ltibia 38.932 0 0
lfoot -9.03172 6.20145 0
ltoes -5.82336 0 0
rfemur -24.2699 4.46173 24.6446
rtibia 33.6973 0 0
rfoot -14.7663 1.73183 0
rtoes -18.2124 0 0
lowerback -6.38231 -1.67278 -1.76008
upperback -1.03813 -2.14955 2.54191
thorax 2.76388 -1.10193 3.37032
lowerneck -19.7113 -5.78134 -12.7595
upperneck 21.3345 -7.48048 12.9574
head 11.1783 -2.94563 5.72587
lclavicle 7.46716e-15 -3.40067e-14 0
lhumerus -39.2835 -24.9595 99.2488
lradius 32.1726 0 0
lwrist 10.8659 0 0
lhand -11.7703 -23.0159 0
lfingers 7.12502 0 0
lthumb 14.2762 6.44158 0
rclavicle 7.46716e-15 -3.40067e-14 0
rhumerus -39.7362 13.6885 -83.8163
rradius 39.0147 0 0
rwrist -19.866 0 0
rhand -29.9782 -24.5043 0
rfingers 7.12502 0 0
rthumb -3.29635 -54.4551 0
357
root 9.41588 16.8355 14.0447 6.41668 6.20598 -1.02906
lfemur -14.0549 5.66642 -18.0358
ltibia 40.3739 0 0
lfoot -9.44102 6.57866 0
ltoes -5.47001 0 0
rfemur -23.5853 4.58008 24.9376
rtibia 33.45 0 0
rfoot -15.1064 1.77003 0
rtoes -18.1769 0 0
lowerback -6.32581 -1.56151 -1.63872
upperback -1.02539 -2.01126 2.55052
thorax 2.72792 -1.03142 3.32685
lowerneck -19.7448 -5.8158 -12.7448
upperneck 21.3576 -7.52718 12.938
head 11.1992 -2.96655 5.70889
lclavicle 6.43506e-15 -3.45594e-14 0
lhumerus -39.765 -24.5221 99.1525
lradius 31.9299 0 0
lwrist 10.9749 0 0
lhand -11.9503 -22.9443 0
lfingers 7.12502 0 0
lthumb 14.1029 6.52656 0
rclavicle 6.43506e-15 -3.45594e-14 0
rhumerus -39.3526 13.973 -83.8557
rradius 39.352 0 0
rwrist -20.0457 0 0
rhand -30.043 -24.4888 0
rfingers 7.12502 0 0
rthumb -3.35894 -54.4388 0
358
root 9.40826 16.8532 14.1832 6.40181 6.09608 -1.16356
lfemur -15.5344 5.66496 -18.0199
ltibia 41.8158 0 0
lfoot -9.85032 6.95586 0
ltoes -5.11666 0 0
rfemur -22.9006 4.69843 25.2306
rtibia 33.2026 0 0
rfoot -15.4465 1.80822 0
rtoes -18.1413 0 0
lowerback -6.26931 -1.45024 -1.51735
upperback -1.01265 -1.87296 2.55912
thorax 2.69195 -0.960905 3.28338
lowerneck -19.7783 -5.85025 -12.7301
upperneck 21.3807 -7.57389 12.9186
head 11.2201 -2.98748 5.69192
lclavicle 5.40295e-15 -3.51122e-14 0
lhumerus -40.2466 -24.0846 99.0562
lradius 31.6873 0 0
lwrist 11.0838 0 0
lhand -12.1303 -22.8727 0
lfingers 7.12502 0 0
lthumb 13.9296 6.61154 0
rclavicle 5.40295e-15 -3.51122e-14 0
rhumerus -38.969 14.2575 -83.8951
rradius 39.6894 0 0
rwrist -20.2255 0 0
rhand -30.1078 -24.4733 0
rfingers 7.12502 0 0
rthumb -3.42153 -54.4224 0
359
root 9.40065 16.8708 14.3217 6.38695 5.98618 -1.29807
lfemur -17.0138 5.66351 -18.0041
ltibia 43.2577 0 0
lfoot -10.2596 7.33306 0
ltoes -4.76331 0 0
rfemur -22.216 4.81678 25.5237
rtibia 32.9553 0 0
rfoot -15.7866 1.84641 0
rtoes -18.1058 0 0
lowerback -6.21281 -1.33898 -1.39599
upperback -0.999917 -1.73467 2.56772
thorax 2.65599 -0.890392 3.23991
lowerneck -19.8118 -5.8847 -12.7155
upperneck 21.4038 -7.62059 12.8992
head 11.2409 -3.0084 5.67494
lclavicle 4.37085e-15 -3.56649e-14 0
lhumerus -40.7281 -23.6472 98.96
lradius 31.4447 0 0
lwrist 11.1928 0 0
lhand -12.3102 -22.8011 0
lfingers 7.12502 0 0
lthumb 13.7563 6.69651 0
rclavicle 4.37085e-15 -3.56649e-14 0
rhumerus -38.5855 14.542 -83.9345
rradius 40.0267 0 0
rwrist -20.4052 0 0
rhand -30.1726 -24.4578 0
rfingers 7.12502 0 0
rthumb -3.48412 -54.4061 0
360
root 9.39303 16.8884 14.4601 6.37209 5.87629 -1.43258
lfemur -18.4933 5.66205 -17.9882
ltibia 44.6997 0 0
lfoot -10.6689 7.71027 0
ltoes -4.40996 0 0
rfemur -21.5313 4.93513 25.8167
rtibia 32.7079 0 0
rfoot -16.1267 1.8846 0
rtoes -18.0702 0 0
lowerback -6.15631 -1.22771 -1.27462
upperback -0.987181 -1.59638 2.57632
thorax 2.62003 -0.819879 3.19644
lowerneck -19.8453 -5.91915 -12.7008
upperneck 21.4269 -7.6673 12.8798
head 11.2618 -3.02932 5.65797
lclavicle 3.33874e-15 -3.62176e-14 0
lhumerus -41.2097 -23.2097 98.8637
lradius 31.2021 0 0
lwrist 11.3017 0 0
lhand -12.4902 -22.7295 0
lfingers 7.12502 0 0
lthumb 13.5829 6.78149 0
rclavicle 3.33874e-15 -3.62176e-14 0
rhumerus -38.2019 14.8265 -83.9739
rradius 40.3641 0 0
rwrist -20.585 0 0
rhand -30.2375 -24.4423 0
rfingers 7.12502 0 0
rthumb -3.54672 -54.3897 0
361
root 9.38541 16.9061 14.5986 6.35723 5.76639 -1.56709
lfemur -19.9727 5.66059 -17.9723
ltibia 46.1416 0 0
lfoot -11.0782 8.08747 0
ltoes -4.05661 0 0
rfemur -20.8467 5.05348 26.1098
rtibia 32.4606 0 0
rfoot -16.4668 1.92279 0
rtoes -18.0347 0 0
lowerback -6.09981 -1.11644 -1.15325
upperback -0.974445 -1.45809 2.58493
thorax 2.58406 -0.749365 3.15297
lowerneck -19.8788 -5.95361 -12.6862
upperneck 21.45 -7.714 12.8604
head 11.2827 -3.05024 5.64099
lclavicle 2.30664e-15 -3.67703e-14 0
lhumerus -41.6912 -22.7723 98.7674
lradius 30.9594 0 0
lwrist 11.4107 0 0
lhand -12.6701 -22.6579 0
lfingers 7.12502 0 0
lthumb 13.4096 6.86647 0
rclavicle 2.30664e-15 -3.67703e-14 0
rhumerus -37.8183 15.1111 -84.0133
rradius 40.7014 0 0
rwrist -20.7647 0 0
rhand -30.3023 -24.4268 0
rfingers 7.12502 0 0
rthumb -3.60931 -54.3734 0
362
root 9.37779 16.9237 14.7371 6.34237 5.65649 -1.7016
lfemur -21.4522 5.65914 -17.9564
ltibia 47.5835 0 0
lfoot -11.4875 8.46467 0
ltoes -3.70326 0 0
rfemur -20.162 5.17183 26.4028
rtibia 32.2132 0 0
rfoot -16.8069 1.96098 0
rtoes -17.9991 0 0
lowerback -6.04331 -1.00518 -1.03189
upperback -0.961709 -1.31979 2.59353
thorax 2.5481 -0.678852 3.10949
lowerneck -19.9124 -5.98806 -12.6715
upperneck 21.473 -7.76071 12.8411
head 11.3036 -3.07116 5.62401
lclavicle 1.27453e-15 -3.7323e-14 0
lhumerus -42.1727 -22.3349 98.6711
lradius 30.7168 0 0
lwrist 11.5197 0 0
lhand -12.8501 -22.5863 0
lfingers 7.12502 0 0
lthumb 13.2363 6.95144 0
rclavicle 1.27453e-15 -3.7323e-14 0
rhumerus -37.4347 15.3956 -84.0527
rradius 41.0387 0 0
rwrist -20.9445 0 0
rhand -30.3671 -24.4113 0
rfingers 7.12502 0 0
rthumb -3.6719 -54.357 0
363
root 9.37018 16.9413 14.8756 6.32751 5.54659 -1.8361
lfemur -22.9316 5.65768 -17.9406
ltibia 49.0254 0 0
lfoot -11.8968 8.84188 0
ltoes -3.34991 0 0
rfemur -19.4774 5.29018 26.6959
rtibia 31.9659 0 0
rfoot -17.147 1.99917 0
rtoes -17.9636 0 0
lowerback -5.98681 -0.89391 -0.91052
upperback -0.948973 -1.1815 2.60213
thorax 2.51214 -0.608339 3.06602
lowerneck -19.9459 -6.02251 -12.6569
upperneck 21.4961 -7.80741 12.8217
head 11.3244 -3.09209 5.60704
lclavicle 2.42426e-16 -3.78758e-14 0
lhumerus -42.6543 -21.8974 98.5749
lradius 30.4742 0 0
lwrist 11.6286 0 0
lhand -13.0301 -22.5147 0
lfingers 7.12502 0 0
lthumb 13.063 7.03642 0
rclavicle 2.42426e-16 -3.78758e-14 0
rhumerus -37.0511 15.6801 -84.0921
rradius 41.3761 0 0
rwrist -21.1242 0 0
rhand -30.4319 -24.3958 0
rfingers 7.12502 0 0
rthumb -3.73449 -54.3407 0
364
root 9.36256 16.959 15.0141 6.31265 5.4367 -1.97061
lfemur -24.4111 5.65623 -17.9247
ltibia 50.4674 0 0
lfoot -12.3061 9.21908 0
ltoes -2.99656 0 0
rfemur -18.7927 5.40853 26.9889
rtibia 31.7185 0 0
rfoot -17.4871 2.03736 0
rtoes -17.928 0 0
lowerback -5.9303 -0.782642 -0.789154
upperback -0.936237 -1.04321 2.61073
thorax 2.47617 -0.537826 3.02255
lowerneck -19.9794 -6.05696 -12.6422
upperneck 21.5192 -7.85412 12.8023
head 11.3453 -3.11301 5.59006
lclavicle -7.89679e-16 -3.84285e-14 0
lhumerus -43.1358 -21.46 98.4786
lradius 30.2316 0 0
lwrist 11.7376 0 0
lhand -13.21 -22.4431 0
lfingers 7.12502 0 0
lthumb 12.8896 7.12139 0
rclavicle -7.89679e-16 -3.84285e-14 0
rhumerus -36.6676 15.9646 -84.1315
rradius 41.7134 0 0
rwrist -21.304 0 0
rhand -30.4967 -24.3803 0
rfingers 7.12502 0 0
rthumb -3.79709 -54.3243 0
365
root 9.35494 16.9766 15.1526 6.29779 5.3268 -2.10512
lfemur -25.8905 5.65477 -17.9088
ltibia 51.9093 0 0
lfoot -12.7154 9.59628 0
ltoes -2.64321 0 0
rfemur -18.1081 5.52687 27.282
rtibia 31.4712 0 0
rfoot -17.8272 2.07555 0
rtoes -17.8925 0 0
lowerback -5.8738 -0.671375 -0.667788
upperback -0.9235 -0.904914 2.61934
thorax 2.44021 -0.467312 2.97908
lowerneck -20.0129 -6.09142 -12.6276
upperneck 21.5423 -7.90082 12.7829
head 11.3662 -3.13393 5.57309
lclavicle -1.82178e-15 -3.89812e-14 0
lhumerus -43.6174 -21.0225 98.3823
lradius 29.9889 0 0
lwrist 11.8465 0 0
lhand -13.39 -22.3715 0
lfingers 7.12502 0 0
lthumb 12.7163 7.20637 0
rclavicle -1.82178e-15 -3.89812e-14 0
rhumerus -36.284 16.2491 -84.1709
rradius 42.0508 0 0
rwrist -21.4837 0 0
rhand -30.5615 -24.3648 0
rfingers 7.12502 0 0
rthumb -3.85968 -54.308 0
366
root 9.34733 16.9943 15.2911 6.28292 5.2169 -2.23963
lfemur -27.37 5.65331 -17.893
ltibia 53.3512 0 0
lfoot -13.1247 9.97349 0
ltoes -2.28987 0 0
rfemur -17.4234 5.64522 27.575
rtibia 31.2238 0 0
rfoot -18.1673 2.11375 0
rtoes -17.8569 0 0
lowerback -5.8173 -0.560108 -0.546422
upperback -0.910764 -0.766621 2.62794
thorax 2.40424 -0.396799 2.93561
lowerneck -20.0464 -6.12587 -12.6129
upperneck 21.5654 -7.94753 12.7635
head 11.387 -3.15485 5.55611
lclavicle -2.85389e-15 -3.95339e-14 0
lhumerus -44.0989 -20.5851 98.2861
lradius 29.7463 0 0
lwrist 11.9555 0 0
lhand -13.57 -22.2999 0
lfingers 7.12502 0 0
lthumb 12.543 7.29135 0
rclavicle -2.85389e-15 -3.95339e-14 0
rhumerus -35.9004 16.5336 -84.2103
rradius 42.3881 0 0
rwrist -21.6635 0 0
rhand -30.6263 -24.3493 0
rfingers 7.12502 0 0
rthumb -3.92227 -54.2916 0
367
root 9.33971 17.0119 15.4295 6.26806 5.107 -2.37414
lfemur -28.8494 5.65186 -17.8771
ltibia 54.7931 0 0
lfoot -13.534 10.3507 0
ltoes -1.93652 0 0
rfemur -16.7388 5.76357 27.8681
rtibia 30.9765 0 0
rfoot -18.5074 2.15194 0
rtoes -17.8214 0 0
lowerback -5.7608 -0.448841 -0.425056
upperback -0.898028 -0.628328 2.63654
thorax 2.36828 -0.326286 2.89214
lowerneck -20.0799 -6.16032 -12.5983
upperneck 21.5885 -7.99423 12.7441
head 11.4079 -3.17577 5.53914
lclavicle -3.88599e-15 -4.00866e-14 0
lhumerus -44.5805 -20.1476 98.1898
lradius 29.5037 0 0
lwrist 12.0644 0 0
lhand -13.7499 -22.2283 0
lfingers 7.12502 0 0
lthumb 12.3697 7.37632 0
rclavicle -3.88599e-15 -4.00866e-14 0
rhumerus -35.5168 16.8182 -84.2497
rradius 42.7255 0 0
rwrist -21.8432 0 0
rhand -30.6912 -24.3338 0
rfingers 7.12502 0 0
rthumb -3.98486 -54.2753 0
368
root 9.33209 17.0295 15.568 6.2532 4.99711 -2.50864
lfemur -30.3289 5.6504 -17.8612
ltibia 56.2351 0 0
lfoot -13.9433 10.7279 0
ltoes -1.58317 0 0
rfemur -16.0541 5.88192 28.1611
rtibia 30.7291 0 0
rfoot -18.8475 2.19013 0
rtoes -17.7858 0 0
lowerback -5.7043 -0.337574 -0.30369
upperback -0.885292 -0.490035 2.64514
thorax 2.33232 -0.255773 2.84866
lowerneck -20.1135 -6.19477 -12.5836
upperneck 21.6115 -8.04094 12.7248
head 11.4288 -3.1967 5.52216
lclavicle -4.9181e-15 -4.06394e-14 0
lhumerus -45.062 -19.7102 98.0935
lradius 29.2611 0 0
lwrist 12.1734 0 0
lhand -13.9299 -22.1567 0
lfingers 7.12502 0 0
lthumb 12.1963 7.4613 0
rclavicle -4.9181e-15 -4.06394e-14 0
rhumerus -35.1333 17.1027 -84.2891
rradius 43.0628 0 0
rwrist -22.023 0 0
rhand -30.756 -24.3183 0
rfingers 7.12502 0 0
rthumb -4.04746 -54.2589 0
369
root 9.32448 17.0472 15.7065 6.23834 4.88721 -2.64315
lfemur -31.8083 5.64895 -17.8454
ltibia 57.677 0 0
lfoot -14.3526 11.1051 0
ltoes -1.22982 0 0
rfemur -15.3695 6.00027 28.4542
rtibia 30.4818 0 0
rfoot -19.1876 2.22832 0
rtoes -17.7503 0 0
lowerback -5.6478 -0.226307 -0.182323
upperback -0.872556 -0.351742 2.65375
thorax 2.29635 -0.185259 2.80519
lowerneck -20.147 -6.22923 -12.569
upperneck 21.6346 -8.08764 12.7054
head 11.4496 -3.21762 5.50519
lclavicle -5.9502e-15 -4.11921e-14 0
lhumerus -45.5436 -19.2727 97.9973
lradius 29.0184 0 0
lwrist 12.2823 0 0
lhand -14.1098 -22.0851 0
lfingers 7.12502 0 0
lthumb 12.023 7.54627 0
rclavicle -5.9502e-15 -4.11921e-14 0
rhumerus -34.7497 17.3872 -84.3285
rradius 43.4002 0 0
rwrist -22.2027 0 0
rhand -30.8208 -24.3028 0
rfingers 7.12502 0 0
rthumb -4.11005 -54.2426 0
